# xmcd
#
# Track frame offsets: 
#        300
#        25616
#        38810
#        59732
#        81057
#        101274
#
# Disc length: 1568 seconds
#
# Revision: 0
# Processed by: cddbd v1.5.2PL0 Copyright (c) Steve Scherf et al.
# Submitted via: ExactAudioCopy v0.99pb5
#
DISCID=41061c06
DTITLE=Bronco Bob - Fat and Muddy
DYEAR=2007
DGENRE=General Blues
TTITLE0=That Woman Is Poison
TTITLE1=I Got A Line On You
TTITLE2=Members Only
TTITLE3=People Will Be People
TTITLE4=Black Cat Bone
TTITLE5=Hold On I'm Coming
EXTD=
EXTT0=
EXTT1=
EXTT2=
EXTT3=
EXTT4=
EXTT5=
PLAYORDER=
